<svg width="697" height="180" viewBox="0 0 697 180" fill="none" xmlns="http://www.w3.org/2000/svg">
<path d="M187.5 90C187.5 138.199 146.215 177.5 95 177.5C43.7846 177.5 2.5 138.199 2.5 90C2.5 41.8007 43.7846 2.5 95 2.5C146.215 2.5 187.5 41.8007 187.5 90Z" stroke="white" stroke-width="5"/>
<path d="M122.265 63.877C135.856 76.4527 147 87.1554 147 87.8243C147 89.9649 142.787 93.1757 140.069 93.1757C137.622 93.1757 137.486 94.3797 137.486 114.447C137.486 132.107 137.079 136.12 135.312 137.859C133.681 139.465 130.147 140 119.818 140H106.363L105.956 124.214V108.159H94.8113H81.7641C81.0846 109.096 81.7641 117.658 81.7641 125.551V140H68.4451C59.8829 140 54.5825 139.465 53.4952 138.395C52.408 137.324 51.8643 130.234 51.8643 115.25V93.7108L47.5153 92.5067C38.9531 89.9649 40.9917 86.8878 67.4938 63.0743C82.1718 49.8297 93.0445 41 94.6754 41C96.4422 41 106.771 49.5621 122.265 63.877Z" fill="white"/>
<path d="M225.33 65.0909V116H219.165V65.0909H225.33ZM278.059 65.0909V116H272.094L244.352 76.0284H243.855V116H237.69V65.0909H243.656L271.497 105.162H271.994V65.0909H278.059ZM287.611 70.5597V65.0909H325.793V70.5597H309.784V116H303.62V70.5597H287.611ZM335.307 116V65.0909H366.032V70.5597H341.472V87.7614H364.441V93.2301H341.472V110.531H366.43V116H335.307ZM377.143 116V65.0909H394.345C398.322 65.0909 401.587 65.7704 404.139 67.1293C406.691 68.4716 408.58 70.3194 409.807 72.6726C411.033 75.0258 411.646 77.7022 411.646 80.7017C411.646 83.7012 411.033 86.361 409.807 88.6811C408.58 91.0012 406.699 92.8241 404.164 94.1499C401.628 95.459 398.389 96.1136 394.444 96.1136H380.524V90.5455H394.246C396.963 90.5455 399.151 90.1477 400.808 89.3523C402.482 88.5568 403.692 87.4299 404.437 85.9716C405.2 84.4967 405.581 82.7401 405.581 80.7017C405.581 78.6634 405.2 76.8819 404.437 75.3572C403.675 73.8326 402.457 72.656 400.783 71.8274C399.109 70.9822 396.897 70.5597 394.146 70.5597H383.308V116H377.143ZM401.106 93.1307L413.635 116H406.476L394.146 93.1307H401.106ZM462.288 65.0909V116H456.322L428.581 76.0284H428.083V116H421.919V65.0909H427.885L455.725 105.162H456.223V65.0909H462.288ZM474.624 116V65.0909H505.348V70.5597H480.789V87.7614H503.757V93.2301H480.789V110.531H505.746V116H474.624ZM513.676 70.5597V65.0909H551.857V70.5597H535.849V116H529.684V70.5597H513.676ZM561.372 116V65.0909H579.17C582.717 65.0909 585.641 65.7041 587.945 66.9304C590.248 68.1401 591.964 69.7725 593.091 71.8274C594.217 73.8658 594.781 76.1278 594.781 78.6136C594.781 80.8011 594.391 82.6075 593.613 84.0327C592.85 85.4579 591.839 86.5848 590.58 87.4134C589.337 88.242 587.986 88.8551 586.528 89.2528V89.75C588.086 89.8494 589.652 90.3963 591.226 91.3906C592.801 92.3849 594.118 93.8101 595.179 95.6662C596.239 97.5223 596.77 99.7926 596.77 102.477C596.77 105.029 596.19 107.325 595.029 109.363C593.869 111.401 592.038 113.017 589.536 114.21C587.033 115.403 583.777 116 579.767 116H561.372ZM567.537 110.531H579.767C583.794 110.531 586.652 109.752 588.343 108.195C590.05 106.62 590.903 104.714 590.903 102.477C590.903 100.754 590.464 99.1629 589.586 97.7045C588.707 96.2296 587.456 95.053 585.832 94.1747C584.208 93.2798 582.286 92.8324 580.065 92.8324H567.537V110.531ZM567.537 87.4631H578.971C580.827 87.4631 582.501 87.0985 583.993 86.3693C585.501 85.6402 586.694 84.6127 587.572 83.2869C588.467 81.9612 588.914 80.4034 588.914 78.6136C588.914 76.3764 588.136 74.4789 586.578 72.9212C585.02 71.3468 582.551 70.5597 579.17 70.5597H567.537V87.4631ZM649.854 90.5455C649.854 95.9148 648.884 100.555 646.945 104.466C645.006 108.377 642.347 111.393 638.966 113.514C635.585 115.635 631.724 116.696 627.382 116.696C623.04 116.696 619.179 115.635 615.798 113.514C612.418 111.393 609.758 108.377 607.819 104.466C605.88 100.555 604.911 95.9148 604.911 90.5455C604.911 85.1761 605.88 80.536 607.819 76.625C609.758 72.714 612.418 69.6979 615.798 67.5767C619.179 65.4555 623.04 64.3949 627.382 64.3949C631.724 64.3949 635.585 65.4555 638.966 67.5767C642.347 69.6979 645.006 72.714 646.945 76.625C648.884 80.536 649.854 85.1761 649.854 90.5455ZM643.888 90.5455C643.888 86.1373 643.15 82.4169 641.675 79.3842C640.217 76.3516 638.237 74.0563 635.734 72.4986C633.249 70.9408 630.464 70.1619 627.382 70.1619C624.3 70.1619 621.507 70.9408 619.005 72.4986C616.519 74.0563 614.539 76.3516 613.064 79.3842C611.606 82.4169 610.876 86.1373 610.876 90.5455C610.876 94.9536 611.606 98.674 613.064 101.707C614.539 104.739 616.519 107.035 619.005 108.592C621.507 110.15 624.3 110.929 627.382 110.929C630.464 110.929 633.249 110.15 635.734 108.592C638.237 107.035 640.217 104.739 641.675 101.707C643.15 98.674 643.888 94.9536 643.888 90.5455ZM660.219 116V65.0909H677.421C681.398 65.0909 684.663 65.7704 687.215 67.1293C689.767 68.4716 691.656 70.3194 692.883 72.6726C694.109 75.0258 694.722 77.7022 694.722 80.7017C694.722 83.7012 694.109 86.361 692.883 88.6811C691.656 91.0012 689.776 92.8241 687.24 94.1499C684.705 95.459 681.465 96.1136 677.521 96.1136H663.6V90.5455H677.322C680.04 90.5455 682.227 90.1477 683.884 89.3523C685.558 88.5568 686.768 87.4299 687.513 85.9716C688.276 84.4967 688.657 82.7401 688.657 80.7017C688.657 78.6634 688.276 76.8819 687.513 75.3572C686.751 73.8326 685.533 72.656 683.859 71.8274C682.186 70.9822 679.973 70.5597 677.222 70.5597H666.384V116H660.219ZM684.183 93.1307L696.711 116H689.552L677.222 93.1307H684.183Z" fill="white"/>
</svg>
