<svg width="478" height="259" viewBox="0 0 478 259" fill="none" xmlns="http://www.w3.org/2000/svg">
<g clip-path="url(#clip0_4_76)">
<path d="M331.5 90C331.5 138.199 290.215 177.5 239 177.5C187.785 177.5 146.5 138.199 146.5 90C146.5 41.8007 187.785 2.5 239 2.5C290.215 2.5 331.5 41.8007 331.5 90Z" stroke="white" stroke-width="5"/>
<path d="M266.265 63.877C279.856 76.4527 291 87.1554 291 87.8243C291 89.9649 286.787 93.1757 284.069 93.1757C281.622 93.1757 281.486 94.3797 281.486 114.447C281.486 132.107 281.079 136.12 279.312 137.859C277.681 139.465 274.147 140 263.818 140H250.363L249.956 124.214V108.159H238.811H225.764C225.085 109.096 225.764 117.658 225.764 125.551V140H212.445C203.883 140 198.582 139.465 197.495 138.395C196.408 137.324 195.864 130.234 195.864 115.25V93.7108L191.515 92.5067C182.953 89.9649 184.992 86.8878 211.494 63.0743C226.172 49.8297 237.044 41 238.675 41C240.442 41 250.771 49.5621 266.265 63.877Z" fill="white"/>
</g>
<path d="M6.16501 206.696V257.605H0V206.696H6.16501ZM58.894 206.696V257.605H52.929L25.187 217.633H24.69V257.605H18.525V206.696H24.491L52.332 246.767H52.829V206.696H58.894ZM68.446 212.165V206.696H106.628V212.165H90.619V257.605H84.455V212.165H68.446ZM116.142 257.605V206.696H146.867V212.165H122.307V229.367H145.276V234.835H122.307V252.136H147.265V257.605H116.142ZM157.978 257.605V206.696H175.18C179.157 206.696 182.422 207.376 184.974 208.734C187.526 210.077 189.415 211.925 190.642 214.278C191.868 216.631 192.481 219.307 192.481 222.307C192.481 225.306 191.868 227.966 190.642 230.286C189.415 232.606 187.534 234.429 184.999 235.755C182.463 237.064 179.224 237.719 175.279 237.719H161.359V232.151H175.081C177.798 232.151 179.986 231.753 181.643 230.957C183.317 230.162 184.527 229.035 185.272 227.577C186.035 226.102 186.416 224.345 186.416 222.307C186.416 220.269 186.035 218.487 185.272 216.962C184.51 215.438 183.292 214.261 181.618 213.433C179.944 212.587 177.732 212.165 174.981 212.165H164.143V257.605H157.978ZM181.941 234.736L194.47 257.605H187.311L174.981 234.736H181.941ZM243.123 206.696V257.605H237.157L209.416 217.633H208.918V257.605H202.754V206.696H208.72L236.56 246.767H237.058V206.696H243.123ZM255.459 257.605V206.696H286.183V212.165H261.624V229.367H284.592V234.835H261.624V252.136H286.581V257.605H255.459ZM294.511 212.165V206.696H332.692V212.165H316.684V257.605H310.519V212.165H294.511ZM342.207 257.605V206.696H360.005C363.552 206.696 366.476 207.309 368.78 208.535C371.083 209.745 372.799 211.378 373.926 213.433C375.052 215.471 375.616 217.733 375.616 220.219C375.616 222.406 375.226 224.213 374.448 225.638C373.685 227.063 372.674 228.19 371.415 229.019C370.172 229.847 368.821 230.46 367.363 230.858V231.355C368.921 231.455 370.487 232.001 372.061 232.996C373.636 233.99 374.953 235.415 376.014 237.271C377.074 239.127 377.605 241.398 377.605 244.082C377.605 246.634 377.025 248.93 375.864 250.968C374.704 253.006 372.873 254.622 370.371 255.815C367.868 257.008 364.612 257.605 360.602 257.605H342.207ZM348.372 252.136H360.602C364.629 252.136 367.487 251.357 369.178 249.8C370.885 248.225 371.738 246.319 371.738 244.082C371.738 242.359 371.299 240.768 370.421 239.31C369.542 237.835 368.291 236.658 366.667 235.78C365.043 234.885 363.121 234.438 360.9 234.438H348.372V252.136ZM348.372 229.068H359.806C361.662 229.068 363.336 228.704 364.828 227.974C366.336 227.245 367.529 226.218 368.407 224.892C369.302 223.566 369.749 222.009 369.749 220.219C369.749 217.982 368.971 216.084 367.413 214.526C365.855 212.952 363.386 212.165 360.005 212.165H348.372V229.068ZM430.689 232.151C430.689 237.52 429.719 242.16 427.78 246.071C425.841 249.982 423.182 252.998 419.801 255.119C416.42 257.24 412.559 258.301 408.217 258.301C403.875 258.301 400.014 257.24 396.633 255.119C393.253 252.998 390.593 249.982 388.654 246.071C386.715 242.16 385.746 237.52 385.746 232.151C385.746 226.781 386.715 222.141 388.654 218.23C390.593 214.319 393.253 211.303 396.633 209.182C400.014 207.061 403.875 206 408.217 206C412.559 206 416.42 207.061 419.801 209.182C423.182 211.303 425.841 214.319 427.78 218.23C429.719 222.141 430.689 226.781 430.689 232.151ZM424.723 232.151C424.723 227.742 423.985 224.022 422.51 220.989C421.052 217.957 419.072 215.661 416.569 214.104C414.084 212.546 411.299 211.767 408.217 211.767C405.135 211.767 402.342 212.546 399.84 214.104C397.354 215.661 395.374 217.957 393.899 220.989C392.441 224.022 391.711 227.742 391.711 232.151C391.711 236.559 392.441 240.279 393.899 243.312C395.374 246.344 397.354 248.64 399.84 250.197C402.342 251.755 405.135 252.534 408.217 252.534C411.299 252.534 414.084 251.755 416.569 250.197C419.072 248.64 421.052 246.344 422.51 243.312C423.985 240.279 424.723 236.559 424.723 232.151ZM441.054 257.605V206.696H458.256C462.233 206.696 465.498 207.376 468.05 208.734C470.602 210.077 472.491 211.925 473.718 214.278C474.944 216.631 475.557 219.307 475.557 222.307C475.557 225.306 474.944 227.966 473.718 230.286C472.491 232.606 470.611 234.429 468.075 235.755C465.54 237.064 462.3 237.719 458.356 237.719H444.435V232.151H458.157C460.875 232.151 463.062 231.753 464.719 230.957C466.393 230.162 467.603 229.035 468.348 227.577C469.111 226.102 469.492 224.345 469.492 222.307C469.492 220.269 469.111 218.487 468.348 216.962C467.586 215.438 466.368 214.261 464.694 213.433C463.021 212.587 460.808 212.165 458.057 212.165H447.219V257.605H441.054ZM465.018 234.736L477.546 257.605H470.387L458.057 234.736H465.018Z" fill="white"/>
<defs>
<clipPath id="clip0_4_76">
<rect width="190" height="180" fill="white" transform="translate(144)"/>
</clipPath>
</defs>
</svg>
