<svg width="149" height="25" viewBox="0 0 149 25" fill="none" xmlns="http://www.w3.org/2000/svg">
<g clip-path="url(#clip0_39_44)">
<path d="M4.70459 23.9672V12.072C4.70459 11.8487 4.77527 11.6626 4.91222 11.5184C5.05358 11.3742 5.22586 11.3044 5.43349 11.3044H8.11937C8.33583 11.3044 8.51253 11.3789 8.64506 11.5231C8.77758 11.6673 8.84826 11.8487 8.84826 12.0674V23.9626C8.84826 24.1859 8.77758 24.372 8.64064 24.5162C8.49928 24.6604 8.32699 24.7302 8.11937 24.7302H5.43349C5.21703 24.7302 5.04032 24.6604 4.9078 24.5162C4.77527 24.372 4.70459 24.1905 4.70459 23.9626V23.9672Z" fill="white"/>
<path d="M11.3975 24.0045V12.0627C11.3975 11.8394 11.4637 11.658 11.6007 11.5184C11.7376 11.3789 11.9055 11.3044 12.1131 11.3044H14.7416C14.9536 11.3044 15.1259 11.3742 15.2584 11.5184C15.3909 11.6626 15.4572 11.8441 15.4572 12.0627V12.8349C16.8046 11.6487 18.1696 11.0532 19.5655 11.0532C21.2177 11.0532 22.5165 11.537 23.4707 12.5093C24.4249 13.4769 24.902 14.9609 24.902 16.9566V24.0045C24.902 24.2278 24.8313 24.4045 24.6987 24.5441C24.5618 24.6837 24.3895 24.7534 24.1775 24.7534H21.5623C21.3502 24.7534 21.1779 24.6837 21.0454 24.5395C20.9129 24.3952 20.8466 24.2185 20.8466 24.0045V16.9566C20.8466 14.9935 20.1001 14.0166 18.6069 14.0212C17.6306 14.0212 16.5793 14.6074 15.4616 15.775V23.9998C15.4616 24.2231 15.3909 24.3999 15.2584 24.5395C15.1215 24.679 14.9492 24.7488 14.746 24.7488H12.1175C11.9055 24.7488 11.7332 24.679 11.6007 24.5395C11.4681 24.3999 11.4019 24.2185 11.4019 23.9998L11.3975 24.0045Z" fill="white"/>
<path d="M27.7778 19.4734V7.90845C27.7778 7.68515 27.8441 7.50372 27.981 7.36416C28.118 7.2246 28.2859 7.15017 28.4935 7.15017H31.1219C31.334 7.15017 31.5063 7.21995 31.6388 7.36416C31.7713 7.50838 31.8376 7.6898 31.8376 7.90845V11.9976H35.111C35.323 11.9976 35.4953 12.0674 35.6278 12.2069C35.7604 12.3465 35.8266 12.5279 35.8266 12.7512V14.2166C35.8266 14.4399 35.756 14.6213 35.6234 14.7609C35.4865 14.9004 35.3142 14.9702 35.111 14.9702H31.8376V19.5292C31.8376 20.3759 32.0275 21.0272 32.403 21.4877C32.7785 21.9483 33.2777 22.1762 33.905 22.1762C34.117 22.1762 34.3998 22.153 34.7487 22.1018C35.0977 22.0506 35.354 22.0274 35.513 22.0274H35.9459C36.158 22.0274 36.3302 22.0971 36.4672 22.232C36.6041 22.367 36.6704 22.5437 36.6704 22.7577V24.0324C36.6704 24.2138 36.5997 24.3766 36.4672 24.5115C36.3302 24.6464 36.158 24.7302 35.9459 24.7627C35.1463 24.9209 34.1082 25 32.8227 25C29.4609 25.0093 27.7778 23.1671 27.7778 19.478V19.4734Z" fill="white"/>
<path d="M39.4313 23.2322C38.2253 22.0553 37.6245 20.334 37.6245 18.0685C37.6245 15.8029 38.2297 14.0677 39.4445 12.8629C40.655 11.658 42.3336 11.0532 44.4762 11.0532C46.6187 11.0532 48.315 11.6533 49.521 12.8582C50.727 14.0584 51.3278 15.7843 51.3278 18.0313V18.7477C51.3278 18.9756 51.2615 19.1617 51.1246 19.3059C50.9876 19.4548 50.8154 19.5246 50.6033 19.5246H41.7682C41.8477 20.4643 42.1216 21.1435 42.5943 21.5715C43.067 21.9994 43.7914 22.2134 44.7721 22.2134C45.8765 22.2134 46.6408 21.939 47.0737 21.39C47.4094 20.9574 47.86 20.7341 48.421 20.7294H50.1704C50.3824 20.7294 50.5547 20.8039 50.6917 20.9574C50.8286 21.1109 50.8993 21.3016 50.8993 21.5389C50.8993 23.8556 48.7612 25.0093 44.4806 25C42.3204 25 40.6417 24.4138 39.4357 23.2369L39.4313 23.2322ZM41.7417 16.738H47.1974C47.1179 14.8074 46.2123 13.8398 44.4806 13.8398C42.7489 13.8398 41.8345 14.8074 41.7417 16.738Z" fill="white"/>
<path d="M53.4878 24.0045V12.0627C53.4878 11.8394 53.5541 11.658 53.691 11.5184C53.828 11.3742 53.9958 11.3044 54.2035 11.3044H56.8319C57.044 11.3044 57.2162 11.3742 57.3488 11.5138C57.4813 11.6533 57.5476 11.8348 57.5476 12.0534V12.8163C58.3471 12.2209 59.1158 11.7789 59.8535 11.4905C60.5913 11.2021 61.5587 11.0625 62.7559 11.0625C62.9679 11.0625 63.1402 11.1323 63.2771 11.2719C63.4141 11.4114 63.4848 11.5882 63.4848 11.7975V13.6351C63.4848 13.8537 63.4141 14.0305 63.2771 14.1654C63.1402 14.3003 62.9679 14.3701 62.7559 14.3701H62.3804C62.1993 14.3701 61.9077 14.3562 61.5013 14.3329C61.0949 14.3096 60.7856 14.2957 60.5736 14.2957C59.5178 14.2957 58.5106 14.9051 57.5476 16.1193V23.9998C57.5476 24.2231 57.4769 24.4045 57.3399 24.5441C57.203 24.6837 57.0351 24.7534 56.8275 24.7534H54.199C53.987 24.7534 53.8147 24.6837 53.6822 24.5441C53.5497 24.4045 53.4834 24.2231 53.4834 24.0045H53.4878Z" fill="white"/>
<path d="M65.1636 24.0045V12.0627C65.1636 11.8394 65.2299 11.658 65.3668 11.5184C65.5038 11.3742 65.6716 11.3044 65.8792 11.3044H68.5077C68.7197 11.3044 68.892 11.3742 69.0245 11.5184C69.1571 11.6626 69.2233 11.8441 69.2233 12.0627V12.8349C70.5707 11.6487 71.9357 11.0532 73.3317 11.0532C74.9838 11.0532 76.2826 11.537 77.2368 12.5093C78.191 13.4769 78.6681 14.9609 78.6681 16.9566V24.0045C78.6681 24.2278 78.5974 24.4045 78.4605 24.5441C78.3235 24.6837 78.1512 24.7534 77.9392 24.7534H75.324C75.1119 24.7534 74.9397 24.6837 74.8071 24.5395C74.6746 24.3952 74.6083 24.2185 74.6083 24.0045V16.9566C74.6083 14.9935 73.8618 14.0166 72.3686 14.0212C71.3924 14.0212 70.341 14.6074 69.2233 15.775V23.9998C69.2233 24.2231 69.1527 24.3999 69.0157 24.5395C68.8788 24.679 68.7109 24.7488 68.5033 24.7488H65.8748C65.6628 24.7488 65.4905 24.679 65.358 24.5395C65.2254 24.3999 65.1592 24.2185 65.1592 23.9998L65.1636 24.0045Z" fill="white"/>
<path d="M82.6217 23.2322C81.4157 22.0553 80.8149 20.334 80.8149 18.0685C80.8149 15.8029 81.4201 14.0677 82.635 12.8629C83.8454 11.658 85.5241 11.0532 87.6666 11.0532C89.8091 11.0532 91.5054 11.6533 92.7114 12.8582C93.9174 14.0584 94.5182 15.7843 94.5182 18.0313V18.7477C94.5182 18.9756 94.452 19.1617 94.315 19.3059C94.1781 19.4548 94.0058 19.5246 93.7937 19.5246H84.9586C85.0381 20.4643 85.312 21.1435 85.7847 21.5715C86.2574 21.9994 86.9819 22.2134 87.9626 22.2134C89.0669 22.2134 89.8312 21.939 90.2641 21.39C90.5998 20.9574 91.0504 20.7341 91.6115 20.7294H93.3608C93.5729 20.7294 93.7452 20.8039 93.8821 20.9574C94.019 21.1109 94.0897 21.3016 94.0897 21.5389C94.0897 23.8556 91.9516 25.0093 87.671 25C85.5108 25 83.8321 24.4138 82.6261 23.2369L82.6217 23.2322ZM84.9321 16.738H90.3878C90.3083 14.8074 89.4027 13.8398 87.671 13.8398C85.9393 13.8398 85.0249 14.8074 84.9321 16.738Z" fill="white"/>
<path d="M97.0449 18.7105V7.14552C97.0449 6.92222 97.1112 6.74079 97.2481 6.60123C97.3851 6.45702 97.5529 6.38724 97.7606 6.38724H100.389C100.601 6.38724 100.773 6.45702 100.906 6.60123C101.038 6.74544 101.105 6.92687 101.105 7.14552V11.2347H104.378C104.59 11.2347 104.762 11.3044 104.895 11.444C105.027 11.5836 105.094 11.765 105.094 11.9883V13.4537C105.094 13.677 105.027 13.8584 104.891 13.998C104.754 14.1375 104.581 14.2073 104.378 14.2073H101.105V18.7663C101.105 19.613 101.29 20.2642 101.67 20.7248C102.046 21.1853 102.545 21.4133 103.172 21.4133C103.384 21.4133 103.667 21.39 104.016 21.3389C104.365 21.2877 104.621 21.2644 104.78 21.2644H105.213C105.425 21.2644 105.597 21.3342 105.734 21.4691C105.871 21.604 105.942 21.7808 105.942 21.9948V23.2694C105.942 23.4509 105.871 23.6137 105.734 23.7486C105.597 23.8835 105.425 23.9672 105.213 23.9998C104.413 24.158 103.375 24.2371 102.09 24.2371C98.728 24.2464 97.0449 22.4042 97.0449 18.7151V18.7105Z" fill="white"/>
<path d="M107.484 7.9131C107.484 7.6898 107.55 7.50837 107.687 7.36881C107.824 7.22925 107.992 7.15482 108.2 7.15482H110.828C111.04 7.15482 111.212 7.2246 111.345 7.36881C111.477 7.51302 111.544 7.69445 111.544 7.9131V11.6812C112.811 11.2626 113.942 11.0532 114.936 11.0532C116.823 11.0532 118.325 11.6533 119.438 12.8489C120.551 14.0491 121.108 15.775 121.108 18.0313C121.108 22.674 118.665 24.9953 113.774 24.9953C112.639 24.9953 111.464 24.8604 110.249 24.5953C109.034 24.3301 108.111 23.9998 107.484 23.6137V7.9131ZM111.544 14.5143V21.7436C112.215 21.9297 113.041 22.0273 114.017 22.0273C115.122 22.0273 115.899 21.711 116.359 21.083C116.818 20.455 117.043 19.4362 117.043 18.0313C117.043 16.6263 116.818 15.6075 116.368 14.9749C115.917 14.3422 115.157 14.0259 114.084 14.0259C113.395 14.0166 112.546 14.1794 111.539 14.5143H111.544Z" fill="white"/>
<path d="M124.483 23.2322C123.268 22.0553 122.658 20.3154 122.658 18.022C122.658 15.7285 123.268 13.9933 124.483 12.8163C125.697 11.644 127.456 11.0532 129.744 11.0532C132.032 11.0532 133.79 11.6394 135.014 12.8163C136.233 13.9887 136.843 15.7239 136.843 18.022C136.843 20.3201 136.233 22.0553 135.014 23.2322C133.795 24.4092 132.037 25 129.744 25C127.451 25 125.697 24.4092 124.483 23.2322ZM127.447 14.8353C126.961 15.4959 126.718 16.5566 126.718 18.0127C126.718 19.4687 126.961 20.5341 127.447 21.2039C127.933 21.8738 128.697 22.2088 129.744 22.2088C130.791 22.2088 131.56 21.8738 132.05 21.2039C132.54 20.5341 132.783 19.4687 132.783 18.0127C132.783 16.5566 132.54 15.4959 132.05 14.8353C131.56 14.1747 130.791 13.8398 129.744 13.8398C128.697 13.8398 127.933 14.1701 127.447 14.8353Z" fill="white"/>
<path d="M139.003 24.0045V12.0627C139.003 11.8394 139.069 11.658 139.206 11.5184C139.343 11.3742 139.511 11.3044 139.719 11.3044H142.347C142.559 11.3044 142.731 11.3742 142.864 11.5138C142.996 11.6533 143.063 11.8348 143.063 12.0534V12.8163C143.862 12.2209 144.631 11.7789 145.369 11.4905C146.106 11.2021 147.074 11.0625 148.271 11.0625C148.483 11.0625 148.655 11.1323 148.792 11.2719C148.929 11.4114 149 11.5882 149 11.7975V13.6351C149 13.8537 148.929 14.0305 148.792 14.1654C148.655 14.3003 148.483 14.3701 148.271 14.3701H147.896C147.714 14.3701 147.423 14.3562 147.016 14.3329C146.61 14.3096 146.301 14.2957 146.089 14.2957C145.033 14.2957 144.026 14.9051 143.063 16.1193V23.9998C143.063 24.2231 142.992 24.4045 142.855 24.5441C142.718 24.6837 142.55 24.7534 142.343 24.7534H139.714C139.502 24.7534 139.33 24.6837 139.197 24.5441C139.065 24.4045 138.999 24.2231 138.999 24.0045H139.003Z" fill="white"/>
<path d="M11.7772 1.97246C10.5845 0.655936 8.91906 0 6.78538 0C4.65169 0 2.99953 0.660588 1.80237 1.97711C0.600789 3.29829 0 5.19632 0 7.6712C0 8.14105 0.0265054 8.57834 0.070681 9.00633H1.97023C1.85538 8.51787 1.7847 8.00614 1.7847 7.47116C1.7847 4.29382 4.01556 1.7166 6.76329 1.7166C9.51101 1.7166 11.7419 4.29382 11.7419 7.47116C11.7419 8.00149 11.6756 8.51787 11.5563 9.00633H13.5619C13.5663 8.85281 13.5442 8.67603 13.5619 8.40622V7.62467C13.5619 5.1684 12.9655 3.28433 11.7728 1.97246H11.7772Z" fill="white"/>
<path d="M9.81592 5.85225L6.05658 8.18291C5.65458 8.52251 5.56181 9.16914 5.84453 9.61574C6.12726 10.0623 6.69712 10.1554 7.0947 9.81578L9.8115 5.85225H9.81592Z" fill="white"/>
</g>
<defs>
<clipPath id="clip0_39_44">
<rect width="149" height="25" fill="white"/>
</clipPath>
</defs>
</svg>
